<svg width="30" height="34" viewBox="0 0 30 34" fill="none" xmlns="http://www.w3.org/2000/svg">
<path d="M25.5 0C27.7091 0 29.5 1.79086 29.5 4V30C29.5 32.2091 27.7091 34 25.5 34H4C1.79086 34 0 32.2091 0 30V4C0 1.79086 1.79086 0 4 0H25.5Z" fill="#DCFCE7"/>
<path d="M25.5 0C27.7091 0 29.5 1.79086 29.5 4V30C29.5 32.2091 27.7091 34 25.5 34H4C1.79086 34 0 32.2091 0 30V4C0 1.79086 1.79086 0 4 0H25.5Z" stroke="#E5E7EB"/>
<path d="M21.5 29.75H8V4.75H21.5V29.75Z" stroke="#E5E7EB"/>
<path d="M21.5 26H8V8H21.5V26Z" stroke="#E5E7EB"/>
<path d="M14.75 8C12.8867 8 11.375 9.51172 11.375 11.375V17C11.375 18.8633 12.8867 20.375 14.75 20.375C16.6133 20.375 18.125 18.8633 18.125 17V11.375C18.125 9.51172 16.6133 8 14.75 8ZM10.25 15.5938C10.25 15.1262 9.87383 14.75 9.40625 14.75C8.93867 14.75 8.5625 15.1262 8.5625 15.5938V17C8.5625 20.1324 10.8898 22.7199 13.9062 23.1312V24.3125H12.2188C11.7512 24.3125 11.375 24.6887 11.375 25.1562C11.375 25.6238 11.7512 26 12.2188 26H14.75H17.2812C17.7488 26 18.125 25.6238 18.125 25.1562C18.125 24.6887 17.7488 24.3125 17.2812 24.3125H15.5938V23.1312C18.6102 22.7199 20.9375 20.1324 20.9375 17V15.5938C20.9375 15.1262 20.5613 14.75 20.0938 14.75C19.6262 14.75 19.25 15.1262 19.25 15.5938V17C19.25 19.4855 17.2355 21.5 14.75 21.5C12.2645 21.5 10.25 19.4855 10.25 17V15.5938Z" fill="#15803D"/>
</svg>
