<svg width="28" height="34" viewBox="0 0 28 34" fill="none" xmlns="http://www.w3.org/2000/svg">
<path d="M23.25 0C25.4591 0 27.25 1.79086 27.25 4V30C27.25 32.2091 25.4591 34 23.25 34H4C1.79086 34 0 32.2091 0 30V4C0 1.79086 1.79086 0 4 0H23.25Z" fill="#DBEAFE"/>
<path d="M23.25 0C25.4591 0 27.25 1.79086 27.25 4V30C27.25 32.2091 25.4591 34 23.25 34H4C1.79086 34 0 32.2091 0 30V4C0 1.79086 1.79086 0 4 0H23.25Z" stroke="#E5E7EB"/>
<path d="M19.25 29.75H8V4.75H19.25V29.75Z" stroke="#E5E7EB"/>
<path d="M19.25 26H8V8H19.25V26Z" stroke="#E5E7EB"/>
<path d="M8.5625 13.0625C8.5625 11.7198 9.09587 10.4322 10.0453 9.48277C10.9947 8.53337 12.2823 8 13.625 8C14.9677 8 16.2553 8.53337 17.2047 9.48277C18.1541 10.4322 18.6875 11.7198 18.6875 13.0625C18.6875 14.4052 18.1541 15.6928 17.2047 16.6422C16.2553 17.5916 14.9677 18.125 13.625 18.125C12.2823 18.125 10.9947 17.5916 10.0453 16.6422C9.09587 15.6928 8.5625 14.4052 8.5625 13.0625ZM13.625 10.8125C13.9344 10.8125 14.1875 10.5594 14.1875 10.25C14.1875 9.94062 13.9344 9.6875 13.625 9.6875C11.7617 9.6875 10.25 11.1992 10.25 13.0625C10.25 13.3719 10.5031 13.625 10.8125 13.625C11.1219 13.625 11.375 13.3719 11.375 13.0625C11.375 11.8215 12.384 10.8125 13.625 10.8125ZM12.5 24.875V19.148C12.8656 19.2148 13.2418 19.25 13.625 19.25C14.0082 19.25 14.3844 19.2148 14.75 19.148V24.875C14.75 25.4973 14.2473 26 13.625 26C13.0027 26 12.5 25.4973 12.5 24.875Z" fill="#1D4ED8"/>
</svg>
