<svg width="108" height="100" viewBox="0 0 108 100" fill="none" xmlns="http://www.w3.org/2000/svg">
<g filter="url(#filter0_dd_1_1015)">
<path d="M15 40C15 20.67 30.67 5 50 5H57.5C76.83 5 92.5 20.67 92.5 40C92.5 59.33 76.83 75 57.5 75H50C30.67 75 15 59.33 15 40Z" fill="#DBEAFE"/>
<path d="M72.5 62.25H35V19.25H72.5V62.25Z" stroke="#E5E7EB"/>
<g clip-path="url(#clip0_1_1015)">
<path d="M54.658 25.2344L71.533 34.6094C72.4353 35.1133 72.7635 36.2559 72.2596 37.1582C71.7556 38.0605 70.6131 38.3887 69.7107 37.8848L53.7498 29.0195L37.783 37.8906C36.8806 38.3945 35.7381 38.0664 35.2342 37.1641C34.7303 36.2617 35.0584 35.1191 35.9607 34.6152L52.8416 25.2344C53.4099 24.918 54.0955 24.918 54.6638 25.2344H54.658ZM53.7498 34.375C54.3714 34.375 54.9675 34.6219 55.4071 35.0615C55.8466 35.501 56.0935 36.0971 56.0935 36.7188C56.0935 37.3404 55.8466 37.9365 55.4071 38.376C54.9675 38.8156 54.3714 39.0625 53.7498 39.0625C53.1282 39.0625 52.532 38.8156 52.0925 38.376C51.653 37.9365 51.406 37.3404 51.406 36.7188C51.406 36.0971 51.653 35.501 52.0925 35.0615C52.532 34.6219 53.1282 34.375 53.7498 34.375ZM43.4373 40C44.0589 40 44.655 40.2469 45.0946 40.6865C45.5341 41.126 45.781 41.7221 45.781 42.3438C45.781 42.9654 45.5341 43.5615 45.0946 44.001C44.655 44.4406 44.0589 44.6875 43.4373 44.6875C42.8157 44.6875 42.2195 44.4406 41.78 44.001C41.3405 43.5615 41.0935 42.9654 41.0935 42.3438C41.0935 41.7221 41.3405 41.126 41.78 40.6865C42.2195 40.2469 42.8157 40 43.4373 40ZM61.7185 42.3438C61.7185 41.7221 61.9655 41.126 62.405 40.6865C62.8445 40.2469 63.4407 40 64.0623 40C64.6839 40 65.28 40.2469 65.7196 40.6865C66.1591 41.126 66.406 41.7221 66.406 42.3438C66.406 42.9654 66.1591 43.5615 65.7196 44.001C65.28 44.4406 64.6839 44.6875 64.0623 44.6875C63.4407 44.6875 62.8445 44.4406 62.405 44.001C61.9655 43.5615 61.7185 42.9654 61.7185 42.3438ZM48.2947 53.793L46.7185 50.8691V53.125C46.7185 54.1621 45.8806 55 44.8435 55H42.031C40.9939 55 40.156 54.1621 40.156 53.125V50.8691L38.5799 53.793C38.2107 54.4785 37.3611 54.7305 36.6756 54.3672C35.99 54.0039 35.7381 53.1484 36.1013 52.4629L38.3221 48.3437C39.2185 46.6738 40.9646 45.6309 42.8631 45.6309H44.0056C44.9607 45.6309 45.8748 45.8945 46.6658 46.3691L48.6346 42.7187C49.531 41.0488 51.2771 40.0059 53.1756 40.0059H54.3181C56.2166 40.0059 57.9568 41.0488 58.8592 42.7187L60.8279 46.3691C61.6189 45.8945 62.533 45.6309 63.4881 45.6309H64.6306C66.5291 45.6309 68.2693 46.6738 69.1717 48.3437L71.3924 52.4629C71.7615 53.1484 71.5037 53.998 70.8181 54.3672C70.1326 54.7363 69.283 54.4785 68.9138 53.793L67.3435 50.8691V53.125C67.3435 54.1621 66.5056 55 65.4685 55H62.656C61.6189 55 60.781 54.1621 60.781 53.125V50.8691L59.2049 53.793C58.8357 54.4785 57.9861 54.7305 57.3006 54.3672C56.615 54.0039 56.3631 53.1484 56.7263 52.4629L58.8533 48.5078C58.7537 48.4082 58.6658 48.2969 58.6013 48.168L57.031 45.2441V48.4375C57.031 49.4746 56.1931 50.3125 55.156 50.3125H52.3435C51.3064 50.3125 50.4685 49.4746 50.4685 48.4375V45.2441L48.8924 48.168C48.8221 48.2969 48.74 48.4082 48.6404 48.5078L50.7674 52.4629C51.1365 53.1484 50.8787 53.998 50.1931 54.3672C49.5076 54.7363 48.658 54.4785 48.2888 53.793H48.2947Z" fill="#1D4ED8"/>
</g>
</g>
<defs>
<filter id="filter0_dd_1_1015" x="0" y="0" width="107.5" height="100" filterUnits="userSpaceOnUse" color-interpolation-filters="sRGB">
<feFlood flood-opacity="0" result="BackgroundImageFix"/>
<feColorMatrix in="SourceAlpha" type="matrix" values="0 0 0 0 0 0 0 0 0 0 0 0 0 0 0 0 0 0 127 0" result="hardAlpha"/>
<feOffset dy="10"/>
<feGaussianBlur stdDeviation="7.5"/>
<feColorMatrix type="matrix" values="0 0 0 0 0 0 0 0 0 0 0 0 0 0 0 0 0 0 0.1 0"/>
<feBlend mode="normal" in2="BackgroundImageFix" result="effect1_dropShadow_1_1015"/>
<feColorMatrix in="SourceAlpha" type="matrix" values="0 0 0 0 0 0 0 0 0 0 0 0 0 0 0 0 0 0 127 0" result="hardAlpha"/>
<feOffset dy="4"/>
<feGaussianBlur stdDeviation="3"/>
<feColorMatrix type="matrix" values="0 0 0 0 0 0 0 0 0 0 0 0 0 0 0 0 0 0 0.1 0"/>
<feBlend mode="normal" in2="effect1_dropShadow_1_1015" result="effect2_dropShadow_1_1015"/>
<feBlend mode="normal" in="SourceGraphic" in2="effect2_dropShadow_1_1015" result="shape"/>
</filter>
<clipPath id="clip0_1_1015">
<path d="M35 25H72.5V55H35V25Z" fill="white"/>
</clipPath>
</defs>
</svg>
