<svg width="100" height="100" viewBox="0 0 100 100" fill="none" xmlns="http://www.w3.org/2000/svg">
<g filter="url(#filter0_dd_1_995)">
<path d="M15 40C15 20.67 30.67 5 50 5C69.33 5 85 20.67 85 40C85 59.33 69.33 75 50 75C30.67 75 15 59.33 15 40Z" fill="#DBEAFE"/>
<path d="M65 62.25H35V19.25H65V62.25Z" stroke="#E5E7EB"/>
<g clip-path="url(#clip0_1_995)">
<path d="M51.875 31.4043V45.625C51.875 46.6621 51.0371 47.5 50 47.5C48.9629 47.5 48.125 46.6621 48.125 45.625V31.4043L43.8242 35.7051C43.0918 36.4375 41.9023 36.4375 41.1699 35.7051C40.4375 34.9727 40.4375 33.7832 41.1699 33.0508L48.6699 25.5508C49.4023 24.8184 50.5918 24.8184 51.3242 25.5508L58.8242 33.0508C59.5566 33.7832 59.5566 34.9727 58.8242 35.7051C58.0918 36.4375 56.9023 36.4375 56.1699 35.7051L51.875 31.4043ZM38.75 45.625H46.25C46.25 47.6934 47.9316 49.375 50 49.375C52.0684 49.375 53.75 47.6934 53.75 45.625H61.25C63.3184 45.625 65 47.3066 65 49.375V51.25C65 53.3184 63.3184 55 61.25 55H38.75C36.6816 55 35 53.3184 35 51.25V49.375C35 47.3066 36.6816 45.625 38.75 45.625ZM60.3125 51.7188C60.6855 51.7188 61.0431 51.5706 61.3069 51.3069C61.5706 51.0431 61.7188 50.6855 61.7188 50.3125C61.7188 49.9395 61.5706 49.5819 61.3069 49.3181C61.0431 49.0544 60.6855 48.9062 60.3125 48.9062C59.9395 48.9062 59.5819 49.0544 59.3181 49.3181C59.0544 49.5819 58.9062 49.9395 58.9062 50.3125C58.9062 50.6855 59.0544 51.0431 59.3181 51.3069C59.5819 51.5706 59.9395 51.7188 60.3125 51.7188Z" fill="#1D4ED8"/>
</g>
</g>
<defs>
<filter id="filter0_dd_1_995" x="0" y="0" width="100" height="100" filterUnits="userSpaceOnUse" color-interpolation-filters="sRGB">
<feFlood flood-opacity="0" result="BackgroundImageFix"/>
<feColorMatrix in="SourceAlpha" type="matrix" values="0 0 0 0 0 0 0 0 0 0 0 0 0 0 0 0 0 0 127 0" result="hardAlpha"/>
<feOffset dy="10"/>
<feGaussianBlur stdDeviation="7.5"/>
<feColorMatrix type="matrix" values="0 0 0 0 0 0 0 0 0 0 0 0 0 0 0 0 0 0 0.1 0"/>
<feBlend mode="normal" in2="BackgroundImageFix" result="effect1_dropShadow_1_995"/>
<feColorMatrix in="SourceAlpha" type="matrix" values="0 0 0 0 0 0 0 0 0 0 0 0 0 0 0 0 0 0 127 0" result="hardAlpha"/>
<feOffset dy="4"/>
<feGaussianBlur stdDeviation="3"/>
<feColorMatrix type="matrix" values="0 0 0 0 0 0 0 0 0 0 0 0 0 0 0 0 0 0 0.1 0"/>
<feBlend mode="normal" in2="effect1_dropShadow_1_995" result="effect2_dropShadow_1_995"/>
<feBlend mode="normal" in="SourceGraphic" in2="effect2_dropShadow_1_995" result="shape"/>
</filter>
<clipPath id="clip0_1_995">
<path d="M35 25H65V55H35V25Z" fill="white"/>
</clipPath>
</defs>
</svg>
