<svg width="97" height="100" viewBox="0 0 97 100" fill="none" xmlns="http://www.w3.org/2000/svg">
<path d="M48.5 0C75.2858 0 97 21.7142 97 48.5V51.5C97 78.2858 75.2858 100 48.5 100C21.7142 100 0 78.2858 0 51.5V48.5C0 21.7142 21.7142 0 48.5 0Z" fill="#DBEAFE"/>
<path d="M48.5 0C75.2858 0 97 21.7142 97 48.5V51.5C97 78.2858 75.2858 100 48.5 100C21.7142 100 0 78.2858 0 51.5V48.5C0 21.7142 21.7142 0 48.5 0Z" stroke="#E5E7EB"/>
<path d="M47.7278 19.2689L24.9778 29.3939C23.556 30.0268 22.7638 31.6088 23.0786 33.1697C23.3935 34.7307 24.7138 35.8697 26.2575 35.8697V36.7135C26.2575 38.1162 27.3442 39.2447 28.695 39.2447H69.32C70.6708 39.2447 71.7575 38.1162 71.7575 36.7135V35.8697C73.3013 35.8697 74.6317 34.7412 74.9364 33.1697C75.2411 31.5982 74.4489 30.0162 73.0372 29.3939L50.2872 19.2689C49.4747 18.9104 48.5403 18.9104 47.7278 19.2689ZM36.0075 42.6197H29.5075V63.3232C29.4466 63.3549 29.3856 63.3971 29.3247 63.4393L24.4497 66.8143C23.2614 67.6369 22.7231 69.1768 23.1396 70.6006C23.556 72.0244 24.8255 72.9947 26.2575 72.9947H71.7575C73.1896 72.9947 74.4489 72.0244 74.8653 70.6006C75.2817 69.1768 74.7536 67.6369 73.5552 66.8143L68.6802 63.4393C68.6192 63.3971 68.5583 63.3654 68.4974 63.3232V42.6197H62.0075V62.8697H57.945V42.6197H51.445V62.8697H46.57V42.6197H40.07V62.8697H36.0075V42.6197ZM49.0075 25.7447C49.8695 25.7447 50.6961 26.1003 51.3056 26.7332C51.9151 27.3662 52.2575 28.2246 52.2575 29.1197C52.2575 30.0148 51.9151 30.8733 51.3056 31.5062C50.6961 32.1391 49.8695 32.4947 49.0075 32.4947C48.1456 32.4947 47.3189 32.1391 46.7094 31.5062C46.0999 30.8733 45.7575 30.0148 45.7575 29.1197C45.7575 28.2246 46.0999 27.3662 46.7094 26.7332C47.3189 26.1003 48.1456 25.7447 49.0075 25.7447Z" fill="#1D4ED8"/>
</svg>
