<svg width="108" height="100" viewBox="0 0 108 100" fill="none" xmlns="http://www.w3.org/2000/svg">
<g filter="url(#filter0_dd_1_1005)">
<path d="M15 40C15 20.67 30.67 5 50 5H57.5C76.83 5 92.5 20.67 92.5 40C92.5 59.33 76.83 75 57.5 75H50C30.67 75 15 59.33 15 40Z" fill="#DCFCE7"/>
<path d="M72.5 62.25H35V19.25H72.5V62.25Z" stroke="#E5E7EB"/>
<g clip-path="url(#clip0_1_1005)">
<path d="M53.75 25C54.7871 25 55.625 25.8379 55.625 26.875V30.625H62.6562C64.9883 30.625 66.875 32.5117 66.875 34.8438V50.7812C66.875 53.1133 64.9883 55 62.6562 55H44.8438C42.5117 55 40.625 53.1133 40.625 50.7812V34.8438C40.625 32.5117 42.5117 30.625 44.8438 30.625H51.875V26.875C51.875 25.8379 52.7129 25 53.75 25ZM47.1875 47.5C46.6719 47.5 46.25 47.9219 46.25 48.4375C46.25 48.9531 46.6719 49.375 47.1875 49.375H49.0625C49.5781 49.375 50 48.9531 50 48.4375C50 47.9219 49.5781 47.5 49.0625 47.5H47.1875ZM52.8125 47.5C52.2969 47.5 51.875 47.9219 51.875 48.4375C51.875 48.9531 52.2969 49.375 52.8125 49.375H54.6875C55.2031 49.375 55.625 48.9531 55.625 48.4375C55.625 47.9219 55.2031 47.5 54.6875 47.5H52.8125ZM58.4375 47.5C57.9219 47.5 57.5 47.9219 57.5 48.4375C57.5 48.9531 57.9219 49.375 58.4375 49.375H60.3125C60.8281 49.375 61.25 48.9531 61.25 48.4375C61.25 47.9219 60.8281 47.5 60.3125 47.5H58.4375ZM50.4688 40C50.4688 39.3784 50.2218 38.7823 49.7823 38.3427C49.3427 37.9032 48.7466 37.6562 48.125 37.6562C47.5034 37.6562 46.9073 37.9032 46.4677 38.3427C46.0282 38.7823 45.7812 39.3784 45.7812 40C45.7812 40.6216 46.0282 41.2177 46.4677 41.6573C46.9073 42.0968 47.5034 42.3438 48.125 42.3438C48.7466 42.3438 49.3427 42.0968 49.7823 41.6573C50.2218 41.2177 50.4688 40.6216 50.4688 40ZM59.375 42.3438C59.9966 42.3438 60.5927 42.0968 61.0323 41.6573C61.4718 41.2177 61.7188 40.6216 61.7188 40C61.7188 39.3784 61.4718 38.7823 61.0323 38.3427C60.5927 37.9032 59.9966 37.6562 59.375 37.6562C58.7534 37.6562 58.1573 37.9032 57.7177 38.3427C57.2782 38.7823 57.0312 39.3784 57.0312 40C57.0312 40.6216 57.2782 41.2177 57.7177 41.6573C58.1573 42.0968 58.7534 42.3438 59.375 42.3438ZM37.8125 38.125H38.75V49.375H37.8125C36.2598 49.375 35 48.1152 35 46.5625V40.9375C35 39.3848 36.2598 38.125 37.8125 38.125ZM69.6875 38.125C71.2402 38.125 72.5 39.3848 72.5 40.9375V46.5625C72.5 48.1152 71.2402 49.375 69.6875 49.375H68.75V38.125H69.6875Z" fill="#16A34A"/>
</g>
</g>
<defs>
<filter id="filter0_dd_1_1005" x="0" y="0" width="107.5" height="100" filterUnits="userSpaceOnUse" color-interpolation-filters="sRGB">
<feFlood flood-opacity="0" result="BackgroundImageFix"/>
<feColorMatrix in="SourceAlpha" type="matrix" values="0 0 0 0 0 0 0 0 0 0 0 0 0 0 0 0 0 0 127 0" result="hardAlpha"/>
<feOffset dy="10"/>
<feGaussianBlur stdDeviation="7.5"/>
<feColorMatrix type="matrix" values="0 0 0 0 0 0 0 0 0 0 0 0 0 0 0 0 0 0 0.1 0"/>
<feBlend mode="normal" in2="BackgroundImageFix" result="effect1_dropShadow_1_1005"/>
<feColorMatrix in="SourceAlpha" type="matrix" values="0 0 0 0 0 0 0 0 0 0 0 0 0 0 0 0 0 0 127 0" result="hardAlpha"/>
<feOffset dy="4"/>
<feGaussianBlur stdDeviation="3"/>
<feColorMatrix type="matrix" values="0 0 0 0 0 0 0 0 0 0 0 0 0 0 0 0 0 0 0.1 0"/>
<feBlend mode="normal" in2="effect1_dropShadow_1_1005" result="effect2_dropShadow_1_1005"/>
<feBlend mode="normal" in="SourceGraphic" in2="effect2_dropShadow_1_1005" result="shape"/>
</filter>
<clipPath id="clip0_1_1005">
<path d="M35 25H72.5V55H35V25Z" fill="white"/>
</clipPath>
</defs>
</svg>
