<svg width="97" height="100" viewBox="0 0 97 100" fill="none" xmlns="http://www.w3.org/2000/svg">
<path d="M48.5 0C75.2858 0 97 21.7142 97 48.5V51.5C97 78.2858 75.2858 100 48.5 100C21.7142 100 0 78.2858 0 51.5V48.5C0 21.7142 21.7142 0 48.5 0Z" fill="#DBEAFE"/>
<path d="M48.5 0C75.2858 0 97 21.7142 97 48.5V51.5C97 78.2858 75.2858 100 48.5 100C21.7142 100 0 78.2858 0 51.5V48.5C0 21.7142 21.7142 0 48.5 0Z" stroke="#E5E7EB"/>
<path d="M75 77H23V23H75V77Z" stroke="#E5E7EB"/>
<g clip-path="url(#clip0_1_1070)">
<path d="M52.25 33.6738V57.375C52.25 59.1035 50.7977 60.5 49 60.5C47.2023 60.5 45.75 59.1035 45.75 57.375V33.6738L38.2953 40.8418C37.0258 42.0625 34.9641 42.0625 33.6945 40.8418C32.425 39.6211 32.425 37.6387 33.6945 36.418L46.6945 23.918C47.9641 22.6973 50.0258 22.6973 51.2953 23.918L64.2953 36.418C65.5648 37.6387 65.5648 39.6211 64.2953 40.8418C63.0258 42.0625 60.9641 42.0625 59.6945 40.8418L52.25 33.6738ZM29.5 57.375H42.5C42.5 60.8223 45.4148 63.625 49 63.625C52.5852 63.625 55.5 60.8223 55.5 57.375H68.5C72.0852 57.375 75 60.1777 75 63.625V66.75C75 70.1973 72.0852 73 68.5 73H29.5C25.9148 73 23 70.1973 23 66.75V63.625C23 60.1777 25.9148 57.375 29.5 57.375ZM66.875 67.5312C67.5215 67.5312 68.1415 67.2843 68.5986 66.8448C69.0557 66.4052 69.3125 65.8091 69.3125 65.1875C69.3125 64.5659 69.0557 63.9698 68.5986 63.5302C68.1415 63.0907 67.5215 62.8438 66.875 62.8438C66.2285 62.8438 65.6085 63.0907 65.1514 63.5302C64.6943 63.9698 64.4375 64.5659 64.4375 65.1875C64.4375 65.8091 64.6943 66.4052 65.1514 66.8448C65.6085 67.2843 66.2285 67.5312 66.875 67.5312Z" fill="#1D4ED8"/>
</g>
<defs>
<clipPath id="clip0_1_1070">
<path d="M23 23H75V73H23V23Z" fill="white"/>
</clipPath>
</defs>
</svg>
