<svg width="88" height="87" viewBox="0 0 88 87" fill="none" xmlns="http://www.w3.org/2000/svg">
<path d="M44.5 0C68.5244 0 88 19.4756 88 43.5C88 67.5244 68.5244 87 44.5 87H43.5C19.4756 87 0 67.5244 0 43.5C0 19.4756 19.4756 0 43.5 0H44.5Z" fill="#DCFCE7"/>
<path d="M44.5 0C68.5244 0 88 19.4756 88 43.5C88 67.5244 68.5244 87 44.5 87H43.5C19.4756 87 0 67.5244 0 43.5C0 19.4756 19.4756 0 43.5 0H44.5Z" stroke="#E5E7EB"/>
<path d="M84 77H25V24H84V77Z" stroke="#E5E7EB"/>
<g clip-path="url(#clip0_1_1078)">
<path d="M43.75 14C45.2711 14 46.5 15.3965 46.5 17.125V23.375H56.8125C60.2328 23.375 63 26.5195 63 30.4062V56.9688C63 60.8555 60.2328 64 56.8125 64H30.6875C27.2672 64 24.5 60.8555 24.5 56.9688V30.4062C24.5 26.5195 27.2672 23.375 30.6875 23.375H41V17.125C41 15.3965 42.2289 14 43.75 14ZM34.125 51.5C33.3687 51.5 32.75 52.2031 32.75 53.0625C32.75 53.9219 33.3687 54.625 34.125 54.625H36.875C37.6313 54.625 38.25 53.9219 38.25 53.0625C38.25 52.2031 37.6313 51.5 36.875 51.5H34.125ZM42.375 51.5C41.6187 51.5 41 52.2031 41 53.0625C41 53.9219 41.6187 54.625 42.375 54.625H45.125C45.8813 54.625 46.5 53.9219 46.5 53.0625C46.5 52.2031 45.8813 51.5 45.125 51.5H42.375ZM50.625 51.5C49.8688 51.5 49.25 52.2031 49.25 53.0625C49.25 53.9219 49.8688 54.625 50.625 54.625H53.375C54.1312 54.625 54.75 53.9219 54.75 53.0625C54.75 52.2031 54.1312 51.5 53.375 51.5H50.625ZM38.9375 39C38.9375 37.964 38.5753 36.9704 37.9307 36.2379C37.286 35.5053 36.4117 35.0938 35.5 35.0938C34.5883 35.0938 33.714 35.5053 33.0693 36.2379C32.4247 36.9704 32.0625 37.964 32.0625 39C32.0625 40.036 32.4247 41.0296 33.0693 41.7621C33.714 42.4947 34.5883 42.9062 35.5 42.9062C36.4117 42.9062 37.286 42.4947 37.9307 41.7621C38.5753 41.0296 38.9375 40.036 38.9375 39ZM52 42.9062C52.9117 42.9062 53.786 42.4947 54.4307 41.7621C55.0753 41.0296 55.4375 40.036 55.4375 39C55.4375 37.964 55.0753 36.9704 54.4307 36.2379C53.786 35.5053 52.9117 35.0938 52 35.0938C51.0883 35.0938 50.214 35.5053 49.5693 36.2379C48.9247 36.9704 48.5625 37.964 48.5625 39C48.5625 40.036 48.9247 41.0296 49.5693 41.7621C50.214 42.4947 51.0883 42.9062 52 42.9062ZM20.375 35.875H21.75V54.625H20.375C18.0977 54.625 16.25 52.5254 16.25 49.9375V40.5625C16.25 37.9746 18.0977 35.875 20.375 35.875ZM67.125 35.875C69.4023 35.875 71.25 37.9746 71.25 40.5625V49.9375C71.25 52.5254 69.4023 54.625 67.125 54.625H65.75V35.875H67.125Z" fill="#15803D"/>
</g>
<defs>
<clipPath id="clip0_1_1078">
<path d="M16.25 14H71.25V64H16.25V14Z" fill="white"/>
</clipPath>
</defs>
</svg>
