<svg width="528" height="74" viewBox="0 0 528 74" fill="none" xmlns="http://www.w3.org/2000/svg">
<path d="M528 74H0V0H528V74Z" stroke="#E5E7EB"/>
<path d="M528 74H0V44H528V74Z" stroke="#E5E7EB"/>
<path d="M30 74H0V44H30V74Z" stroke="#E5E7EB"/>
<g clip-path="url(#clip0_7_426)">
<g clip-path="url(#clip1_7_426)">
<path d="M15 74C18.9782 74 22.7936 72.4196 25.6066 69.6066C28.4196 66.7936 30 62.9782 30 59C30 55.0218 28.4196 51.2064 25.6066 48.3934C22.7936 45.5804 18.9782 44 15 44C11.0218 44 7.20644 45.5804 4.3934 48.3934C1.58035 51.2064 0 55.0218 0 59C0 62.9782 1.58035 66.7936 4.3934 69.6066C7.20644 72.4196 11.0218 74 15 74ZM9.33398 66.7754C9.18164 67.2676 8.6543 67.5488 8.16211 67.3906C7.66992 67.2324 7.38867 66.7109 7.54688 66.2188C8.50781 63.1074 11.502 60.875 15 60.875C18.498 60.875 21.4922 63.1074 22.459 66.2246C22.6113 66.7168 22.3359 67.2441 21.8438 67.3965C21.3516 67.5488 20.8242 67.2734 20.6719 66.7812C19.9512 64.4727 17.7012 62.75 15 62.75C12.2988 62.75 10.0488 64.4727 9.33398 66.7754ZM8.46094 56.1875C8.46094 55.6902 8.65848 55.2133 9.01011 54.8617C9.36174 54.51 9.83866 54.3125 10.3359 54.3125C10.8332 54.3125 11.3101 54.51 11.6618 54.8617C12.0134 55.2133 12.2109 55.6902 12.2109 56.1875C12.2109 56.6848 12.0134 57.1617 11.6618 57.5133C11.3101 57.865 10.8332 58.0625 10.3359 58.0625C9.83866 58.0625 9.36174 57.865 9.01011 57.5133C8.65848 57.1617 8.46094 56.6848 8.46094 56.1875ZM19.7109 54.3125C20.2082 54.3125 20.6851 54.51 21.0368 54.8617C21.3884 55.2133 21.5859 55.6902 21.5859 56.1875C21.5859 56.6848 21.3884 57.1617 21.0368 57.5133C20.6851 57.865 20.2082 58.0625 19.7109 58.0625C19.2137 58.0625 18.7367 57.865 18.3851 57.5133C18.0335 57.1617 17.8359 56.6848 17.8359 56.1875C17.8359 55.6902 18.0335 55.2133 18.3851 54.8617C18.7367 54.51 19.2137 54.3125 19.7109 54.3125Z" fill="#F87171"/>
</g>
</g>
<path d="M72 74H42V44H72V74Z" stroke="#E5E7EB"/>
<g clip-path="url(#clip2_7_426)">
<g clip-path="url(#clip3_7_426)">
<path d="M57 74C60.9782 74 64.7936 72.4196 67.6066 69.6066C70.4196 66.7936 72 62.9782 72 59C72 55.0218 70.4196 51.2064 67.6066 48.3934C64.7936 45.5804 60.9782 44 57 44C53.0218 44 49.2064 45.5804 46.3934 48.3934C43.5804 51.2064 42 55.0218 42 59C42 62.9782 43.5804 66.7936 46.3934 69.6066C49.2064 72.4196 53.0218 74 57 74ZM52.3359 54.3125C52.8332 54.3125 53.3101 54.51 53.6618 54.8617C54.0134 55.2133 54.2109 55.6902 54.2109 56.1875C54.2109 56.6848 54.0134 57.1617 53.6618 57.5133C53.3101 57.865 52.8332 58.0625 52.3359 58.0625C51.8387 58.0625 51.3617 57.865 51.0101 57.5133C50.6585 57.1617 50.4609 56.6848 50.4609 56.1875C50.4609 55.6902 50.6585 55.2133 51.0101 54.8617C51.3617 54.51 51.8387 54.3125 52.3359 54.3125ZM59.8359 56.1875C59.8359 55.6902 60.0335 55.2133 60.3851 54.8617C60.7367 54.51 61.2137 54.3125 61.7109 54.3125C62.2082 54.3125 62.6851 54.51 63.0368 54.8617C63.3884 55.2133 63.5859 55.6902 63.5859 56.1875C63.5859 56.6848 63.3884 57.1617 63.0368 57.5133C62.6851 57.865 62.2082 58.0625 61.7109 58.0625C61.2137 58.0625 60.7367 57.865 60.3851 57.5133C60.0335 57.1617 59.8359 56.6848 59.8359 56.1875ZM51.375 63.6875H62.625C63.1406 63.6875 63.5625 64.1094 63.5625 64.625C63.5625 65.1406 63.1406 65.5625 62.625 65.5625H51.375C50.8594 65.5625 50.4375 65.1406 50.4375 64.625C50.4375 64.1094 50.8594 63.6875 51.375 63.6875Z" fill="#FACC15"/>
</g>
</g>
<path d="M114 74H84V44H114V74Z" stroke="#E5E7EB"/>
<g clip-path="url(#clip4_7_426)">
<g clip-path="url(#clip5_7_426)">
<path d="M99 74C102.978 74 106.794 72.4196 109.607 69.6066C112.42 66.7936 114 62.9782 114 59C114 55.0218 112.42 51.2064 109.607 48.3934C106.794 45.5804 102.978 44 99 44C95.0218 44 91.2064 45.5804 88.3934 48.3934C85.5804 51.2064 84 55.0218 84 59C84 62.9782 85.5804 66.7936 88.3934 69.6066C91.2064 72.4196 95.0218 74 99 74ZM93.6152 63.0723C94.6641 64.2852 96.457 65.5625 99 65.5625C101.543 65.5625 103.336 64.2852 104.385 63.0723C104.725 62.6797 105.316 62.6387 105.709 62.9785C106.102 63.3184 106.143 63.9102 105.803 64.3027C104.496 65.8027 102.229 67.4375 99 67.4375C95.7715 67.4375 93.5039 65.8027 92.1973 64.3027C91.8574 63.9102 91.8984 63.3184 92.291 62.9785C92.6836 62.6387 93.2754 62.6797 93.6152 63.0723ZM92.4609 56.1875C92.4609 55.6902 92.6585 55.2133 93.0101 54.8617C93.3617 54.51 93.8387 54.3125 94.3359 54.3125C94.8332 54.3125 95.3101 54.51 95.6618 54.8617C96.0134 55.2133 96.2109 55.6902 96.2109 56.1875C96.2109 56.6848 96.0134 57.1617 95.6618 57.5133C95.3101 57.865 94.8332 58.0625 94.3359 58.0625C93.8387 58.0625 93.3617 57.865 93.0101 57.5133C92.6585 57.1617 92.4609 56.6848 92.4609 56.1875ZM103.711 54.3125C104.208 54.3125 104.685 54.51 105.037 54.8617C105.388 55.2133 105.586 55.6902 105.586 56.1875C105.586 56.6848 105.388 57.1617 105.037 57.5133C104.685 57.865 104.208 58.0625 103.711 58.0625C103.214 58.0625 102.737 57.865 102.385 57.5133C102.033 57.1617 101.836 56.6848 101.836 56.1875C101.836 55.6902 102.033 55.2133 102.385 54.8617C102.737 54.51 103.214 54.3125 103.711 54.3125Z" fill="#22C55E"/>
</g>
</g>
<defs>
<clipPath id="clip0_7_426">
<rect width="30" height="30" fill="white" transform="translate(0 44)"/>
</clipPath>
<clipPath id="clip1_7_426">
<path d="M0 44H30V74H0V44Z" fill="white"/>
</clipPath>
<clipPath id="clip2_7_426">
<rect width="30" height="30" fill="white" transform="translate(42 44)"/>
</clipPath>
<clipPath id="clip3_7_426">
<path d="M42 44H72V74H42V44Z" fill="white"/>
</clipPath>
<clipPath id="clip4_7_426">
<rect width="30" height="30" fill="white" transform="translate(84 44)"/>
</clipPath>
<clipPath id="clip5_7_426">
<path d="M84 44H114V74H84V44Z" fill="white"/>
</clipPath>
</defs>
</svg>
