<svg width="27" height="27" viewBox="0 0 27 27" fill="none" xmlns="http://www.w3.org/2000/svg">
<path fill-rule="evenodd" clip-rule="evenodd" d="M7.06035 9.73347C7.25375 9.5474 7.51311 9.44572 7.78144 9.45078C8.04977 9.45585 8.30511 9.56723 8.49135 9.76047L13.4999 15.0768L18.5084 9.76047C18.5994 9.6601 18.7097 9.57903 18.8326 9.52206C18.9555 9.46509 19.0887 9.43338 19.2241 9.4288C19.3595 9.42422 19.4945 9.44688 19.621 9.49542C19.7475 9.54396 19.863 9.61741 19.9606 9.7114C20.0582 9.80539 20.136 9.91802 20.1892 10.0426C20.2425 10.1672 20.2702 10.3012 20.2708 10.4367C20.2713 10.5722 20.2446 10.7065 20.1924 10.8315C20.1401 10.9565 20.0632 11.0697 19.9664 11.1645L14.2289 17.2395C14.1344 17.3375 14.0212 17.4154 13.8959 17.4686C13.7707 17.5219 13.636 17.5493 13.4999 17.5493C13.3638 17.5493 13.229 17.5219 13.1038 17.4686C12.9785 17.4154 12.8653 17.3375 12.7709 17.2395L7.03335 11.1645C6.84728 10.9711 6.74561 10.7117 6.75067 10.4434C6.75573 10.1751 6.86712 9.91971 7.06035 9.73347Z" fill="black"/>
</svg>
