<svg width="21" height="24" viewBox="0 0 21 24" fill="none" xmlns="http://www.w3.org/2000/svg">
<g clip-path="url(#clip0_1_1011)">
<g clip-path="url(#clip1_1_1011)">
<path d="M20.5594 13.0594C21.1453 12.4734 21.1453 11.5219 20.5594 10.9359L13.0594 3.43591C12.4734 2.84998 11.5219 2.84998 10.9359 3.43591C10.35 4.02185 10.35 4.97341 10.9359 5.55935L15.8812 10.5H1.5C0.670312 10.5 0 11.1703 0 12C0 12.8297 0.670312 13.5 1.5 13.5H15.8766L10.9406 18.4406C10.3547 19.0265 10.3547 19.9781 10.9406 20.564C11.5266 21.15 12.4781 21.15 13.0641 20.564L20.5641 13.064L20.5594 13.0594Z" fill="#60A5FA"/>
</g>
</g>
<defs>
<clipPath id="clip0_1_1011">
<rect width="21" height="24" fill="white"/>
</clipPath>
<clipPath id="clip1_1_1011">
<path d="M0 0H21V24H0V0Z" fill="white"/>
</clipPath>
</defs>
</svg>
