<svg width="12" height="12" viewBox="0 0 12 12" fill="none" xmlns="http://www.w3.org/2000/svg">
<g clip-path="url(#clip0_7_369)">
<g clip-path="url(#clip1_7_369)">
<path d="M7.125 1.125C7.125 0.826631 7.00647 0.540483 6.7955 0.329505C6.58452 0.118526 6.29837 0 6 0C5.70163 0 5.41548 0.118526 5.2045 0.329505C4.99353 0.540483 4.875 0.826631 4.875 1.125C4.875 1.42337 4.99353 1.70952 5.2045 1.9205C5.41548 2.13147 5.70163 2.25 6 2.25C6.29837 2.25 6.58452 2.13147 6.7955 1.9205C7.00647 1.70952 7.125 1.42337 7.125 1.125ZM7.125 10.875C7.125 10.5766 7.00647 10.2905 6.7955 10.0795C6.58452 9.86853 6.29837 9.75 6 9.75C5.70163 9.75 5.41548 9.86853 5.2045 10.0795C4.99353 10.2905 4.875 10.5766 4.875 10.875C4.875 11.1734 4.99353 11.4595 5.2045 11.6705C5.41548 11.8815 5.70163 12 6 12C6.29837 12 6.58452 11.8815 6.7955 11.6705C7.00647 11.4595 7.125 11.1734 7.125 10.875ZM1.125 7.125C1.42337 7.125 1.70952 7.00647 1.9205 6.7955C2.13147 6.58452 2.25 6.29837 2.25 6C2.25 5.70163 2.13147 5.41548 1.9205 5.2045C1.70952 4.99353 1.42337 4.875 1.125 4.875C0.826631 4.875 0.540483 4.99353 0.329505 5.2045C0.118526 5.41548 0 5.70163 0 6C0 6.29837 0.118526 6.58452 0.329505 6.7955C0.540483 7.00647 0.826631 7.125 1.125 7.125ZM12 6C12 5.70163 11.8815 5.41548 11.6705 5.2045C11.4595 4.99353 11.1734 4.875 10.875 4.875C10.5766 4.875 10.2905 4.99353 10.0795 5.2045C9.86853 5.41548 9.75 5.70163 9.75 6C9.75 6.29837 9.86853 6.58452 10.0795 6.7955C10.2905 7.00647 10.5766 7.125 10.875 7.125C11.1734 7.125 11.4595 7.00647 11.6705 6.7955C11.8815 6.58452 12 6.29837 12 6ZM3.34922 10.2422C3.45371 10.1377 3.5366 10.0136 3.59315 9.87712C3.6497 9.74059 3.67881 9.59426 3.67881 9.44648C3.67881 9.29871 3.6497 9.15238 3.59315 9.01585C3.5366 8.87933 3.45371 8.75527 3.34922 8.65078C3.24473 8.54629 3.12067 8.4634 2.98415 8.40685C2.84762 8.3503 2.70129 8.32119 2.55352 8.32119C2.25507 8.32119 1.96885 8.43975 1.75781 8.65078C1.54678 8.86182 1.42822 9.14804 1.42822 9.44648C1.42822 9.74493 1.54678 10.0312 1.75781 10.2422C1.96885 10.4532 2.25507 10.5718 2.55352 10.5718C2.85196 10.5718 3.13819 10.4532 3.34922 10.2422ZM3.34922 3.34688C3.4589 3.2436 3.54673 3.11934 3.60748 2.98148C3.66823 2.84362 3.70068 2.69496 3.70289 2.54432C3.7051 2.39368 3.67703 2.24413 3.62035 2.10455C3.56367 1.96496 3.47953 1.83818 3.37292 1.73173C3.26631 1.62528 3.13941 1.54133 2.99974 1.48485C2.86007 1.42838 2.71048 1.40053 2.55985 1.40296C2.40921 1.40539 2.2606 1.43806 2.12283 1.49901C1.98505 1.55997 1.86093 1.64798 1.75781 1.75781C1.54678 1.96885 1.42822 2.25507 1.42822 2.55352C1.42822 2.85196 1.54678 3.13819 1.75781 3.34922C1.96885 3.56025 2.25507 3.67881 2.55352 3.67881C2.85196 3.67881 3.13819 3.56025 3.34922 3.34922V3.34688ZM8.65078 10.2422C8.75527 10.3467 8.87933 10.4296 9.01585 10.4861C9.15238 10.5427 9.29871 10.5718 9.44648 10.5718C9.59426 10.5718 9.74059 10.5427 9.87712 10.4861C10.0136 10.4296 10.1377 10.3467 10.2422 10.2422C10.3467 10.1377 10.4296 10.0136 10.4861 9.87712C10.5427 9.74059 10.5718 9.59426 10.5718 9.44648C10.5718 9.29871 10.5427 9.15238 10.4861 9.01585C10.4296 8.87933 10.3467 8.75527 10.2422 8.65078C10.1377 8.54629 10.0136 8.4634 9.87712 8.40685C9.74059 8.3503 9.59426 8.32119 9.44648 8.32119C9.29871 8.32119 9.15238 8.3503 9.01585 8.40685C8.87933 8.4634 8.75527 8.54629 8.65078 8.65078C8.54629 8.75527 8.4634 8.87933 8.40685 9.01585C8.3503 9.15238 8.32119 9.29871 8.32119 9.44648C8.32119 9.59426 8.3503 9.74059 8.40685 9.87712C8.4634 10.0136 8.54629 10.1377 8.65078 10.2422Z" fill="#1D4ED8"/>
</g>
</g>
<defs>
<clipPath id="clip0_7_369">
<rect width="12" height="12" fill="white"/>
</clipPath>
<clipPath id="clip1_7_369">
<path d="M0 0H12V12H0V0Z" fill="white"/>
</clipPath>
</defs>
</svg>
