<svg width="30" height="24" viewBox="0 0 30 24" fill="none" xmlns="http://www.w3.org/2000/svg">
<path d="M30 24H0V0H30V24Z" stroke="#E5E7EB"/>
<path d="M30 24H0V0H30V24Z" stroke="#E5E7EB"/>
<path d="M9.99375 1.5H13.5V4.5C13.5 5.32969 14.1703 6 15 6C15.8297 6 16.5 5.32969 16.5 4.5V1.5H20.0062C21.2766 1.5 22.4109 2.30156 22.8328 3.49687L24.8344 9.15C24.3234 9.05156 23.7938 9 23.25 9C20.4609 9 17.9953 10.3875 16.5 12.5062V10.5C16.5 9.67031 15.8297 9 15 9C14.1703 9 13.5 9.67031 13.5 10.5V13.5C13.5 14.3297 14.1703 15 15 15C15.1078 15 15.2156 14.9859 15.3187 14.9672C15.1078 15.6937 15 16.4578 15 17.25C15 17.5031 15.0094 17.7516 15.0328 18H15C14.1703 18 13.5 18.6703 13.5 19.5V22.5H4.05937C2.64844 22.5 1.5 21.3516 1.5 19.9406C1.5 19.65 1.55156 19.3594 1.64531 19.0875L7.16719 3.49687C7.59375 2.30156 8.72344 1.5 9.99375 1.5ZM23.25 10.5C25.0402 10.5 26.7571 11.2112 28.023 12.477C29.2888 13.7429 30 15.4598 30 17.25C30 19.0402 29.2888 20.7571 28.023 22.023C26.7571 23.2888 25.0402 24 23.25 24C21.4598 24 19.7429 23.2888 18.477 22.023C17.2112 20.7571 16.5 19.0402 16.5 17.25C16.5 15.4598 17.2112 13.7429 18.477 12.477C19.7429 11.2112 21.4598 10.5 23.25 10.5ZM23.25 21.75C23.5484 21.75 23.8345 21.6315 24.0455 21.4205C24.2565 21.2095 24.375 20.9234 24.375 20.625C24.375 20.3266 24.2565 20.0405 24.0455 19.8295C23.8345 19.6185 23.5484 19.5 23.25 19.5C22.9516 19.5 22.6655 19.6185 22.4545 19.8295C22.2435 20.0405 22.125 20.3266 22.125 20.625C22.125 20.9234 22.2435 21.2095 22.4545 21.4205C22.6655 21.6315 22.9516 21.75 23.25 21.75ZM23.25 12.75C22.8375 12.75 22.5 13.0875 22.5 13.5V17.25C22.5 17.6625 22.8375 18 23.25 18C23.6625 18 24 17.6625 24 17.25V13.5C24 13.0875 23.6625 12.75 23.25 12.75Z" fill="#60A5FA"/>
</svg>
