<svg width="30" height="43" viewBox="0 0 30 43" fill="none" xmlns="http://www.w3.org/2000/svg">
<path d="M30 43H0V0H30V43Z" stroke="#E5E7EB"/>
<g clip-path="url(#clip0_1_1038)">
<path d="M15 5.75C18.9782 5.75 22.7936 7.33035 25.6066 10.1434C28.4196 12.9564 30 16.7718 30 20.75C30 24.7282 28.4196 28.5436 25.6066 31.3566C22.7936 34.1696 18.9782 35.75 15 35.75C11.0218 35.75 7.20644 34.1696 4.3934 31.3566C1.58035 28.5436 0 24.7282 0 20.75C0 16.7718 1.58035 12.9564 4.3934 10.1434C7.20644 7.33035 11.0218 5.75 15 5.75ZM13.5938 12.7812V20.75C13.5938 21.2188 13.8281 21.6582 14.2207 21.9219L19.8457 25.6719C20.4902 26.1055 21.3633 25.9297 21.7969 25.2793C22.2305 24.6289 22.0547 23.7617 21.4043 23.3281L16.4062 20V12.7812C16.4062 12.002 15.7793 11.375 15 11.375C14.2207 11.375 13.5938 12.002 13.5938 12.7812Z" fill="#2563EB"/>
</g>
<defs>
<clipPath id="clip0_1_1038">
<path d="M0 5.75H30V35.75H0V5.75Z" fill="white"/>
</clipPath>
</defs>
</svg>
