<svg width="30" height="43" viewBox="0 0 30 43" fill="none" xmlns="http://www.w3.org/2000/svg">
<path d="M30 43H0V0H30V43Z" stroke="#E5E7EB"/>
<g clip-path="url(#clip0_1_1047)">
<path d="M15 35.75C18.9782 35.75 22.7936 34.1696 25.6066 31.3566C28.4196 28.5436 30 24.7282 30 20.75C30 16.7718 28.4196 12.9564 25.6066 10.1434C22.7936 7.33035 18.9782 5.75 15 5.75C11.0218 5.75 7.20644 7.33035 4.3934 10.1434C1.58035 12.9564 0 16.7718 0 20.75C0 24.7282 1.58035 28.5436 4.3934 31.3566C7.20644 34.1696 11.0218 35.75 15 35.75ZM9.61523 24.8223C10.6641 26.0352 12.457 27.3125 15 27.3125C17.543 27.3125 19.3359 26.0352 20.3848 24.8223C20.7246 24.4297 21.3164 24.3887 21.709 24.7285C22.1016 25.0684 22.1426 25.6602 21.8027 26.0527C20.4961 27.5527 18.2285 29.1875 15 29.1875C11.7715 29.1875 9.50391 27.5527 8.19727 26.0527C7.85742 25.6602 7.89844 25.0684 8.29102 24.7285C8.68359 24.3887 9.27539 24.4297 9.61523 24.8223ZM8.46094 17.9375C8.46094 17.4402 8.65848 16.9633 9.01011 16.6117C9.36174 16.26 9.83866 16.0625 10.3359 16.0625C10.8332 16.0625 11.3101 16.26 11.6618 16.6117C12.0134 16.9633 12.2109 17.4402 12.2109 17.9375C12.2109 18.4348 12.0134 18.9117 11.6618 19.2633C11.3101 19.615 10.8332 19.8125 10.3359 19.8125C9.83866 19.8125 9.36174 19.615 9.01011 19.2633C8.65848 18.9117 8.46094 18.4348 8.46094 17.9375ZM19.7109 16.0625C20.2082 16.0625 20.6851 16.26 21.0368 16.6117C21.3884 16.9633 21.5859 17.4402 21.5859 17.9375C21.5859 18.4348 21.3884 18.9117 21.0368 19.2633C20.6851 19.615 20.2082 19.8125 19.7109 19.8125C19.2137 19.8125 18.7367 19.615 18.3851 19.2633C18.0335 18.9117 17.8359 18.4348 17.8359 17.9375C17.8359 17.4402 18.0335 16.9633 18.3851 16.6117C18.7367 16.26 19.2137 16.0625 19.7109 16.0625Z" fill="#22C55E"/>
</g>
<defs>
<clipPath id="clip0_1_1047">
<path d="M0 5.75H30V35.75H0V5.75Z" fill="white"/>
</clipPath>
</defs>
</svg>
