<svg width="27" height="43" viewBox="0 0 27 43" fill="none" xmlns="http://www.w3.org/2000/svg">
<path d="M26.25 43H0V0H26.25V43Z" stroke="#E5E7EB"/>
<g clip-path="url(#clip0_1_1056)">
<path d="M20.4726 8.36332C20.8183 7.56059 20.5605 6.62309 19.8515 6.10746C19.1426 5.59184 18.1758 5.63871 17.5137 6.21293L2.51366 19.3379C1.92772 19.8536 1.71678 20.6797 1.99217 21.4063C2.26757 22.1329 2.97069 22.625 3.74999 22.625H10.2832L5.77733 33.1368C5.43163 33.9395 5.68944 34.877 6.39842 35.3926C7.10741 35.9082 8.07421 35.8614 8.73632 35.2872L23.7363 22.1622C24.3223 21.6465 24.5332 20.8204 24.2578 20.0938C23.9824 19.3672 23.2851 18.8809 22.5 18.8809H15.9668L20.4726 8.36332Z" fill="#EAB308"/>
</g>
<defs>
<clipPath id="clip0_1_1056">
<path d="M0 5.75H26.25V35.75H0V5.75Z" fill="white"/>
</clipPath>
</defs>
</svg>
