<svg width="18" height="25" viewBox="0 0 18 25" fill="none" xmlns="http://www.w3.org/2000/svg">
<path d="M18 25H0V0H18V25Z" stroke="#E5E7EB"/>
<g clip-path="url(#clip0_1_987)">
<path d="M16.875 4.375C16.875 3.92149 16.6008 3.51016 16.1789 3.33438C15.757 3.1586 15.2754 3.25704 14.952 3.57696L13.4191 5.11329C11.7316 6.80079 9.44297 7.75 7.05586 7.75H6.75H5.625H2.25C1.00898 7.75 0 8.75899 0 10V13.375C0 14.616 1.00898 15.625 2.25 15.625V20.125C2.25 20.7473 2.75273 21.25 3.375 21.25H5.625C6.24727 21.25 6.75 20.7473 6.75 20.125V15.625H7.05586C9.44297 15.625 11.7316 16.5742 13.4191 18.2617L14.952 19.7945C15.2754 20.118 15.757 20.2129 16.1789 20.0371C16.6008 19.8613 16.875 19.4535 16.875 18.9965V13.8109C17.5289 13.5016 18 12.6684 18 11.6875C18 10.7066 17.5289 9.87344 16.875 9.56407V4.375ZM14.625 7.07149V11.6875V16.3035C12.5578 14.4227 9.86133 13.375 7.05586 13.375H6.75V10H7.05586C9.86133 10 12.5578 8.95235 14.625 7.07149Z" fill="white"/>
</g>
<defs>
<clipPath id="clip0_1_987">
<path d="M0 3.25H18V21.25H0V3.25Z" fill="white"/>
</clipPath>
</defs>
</svg>
