<svg width="30" height="43" viewBox="0 0 30 43" fill="none" xmlns="http://www.w3.org/2000/svg">
<path d="M30 43H0V0H30V43Z" stroke="#E5E7EB"/>
<g clip-path="url(#clip0_1_1029)">
<path d="M15 35.75C18.9782 35.75 22.7936 34.1696 25.6066 31.3566C28.4196 28.5436 30 24.7282 30 20.75C30 16.7718 28.4196 12.9564 25.6066 10.1434C22.7936 7.33035 18.9782 5.75 15 5.75C11.0218 5.75 7.20644 7.33035 4.3934 10.1434C1.58035 12.9564 0 16.7718 0 20.75C0 24.7282 1.58035 28.5436 4.3934 31.3566C7.20644 34.1696 11.0218 35.75 15 35.75ZM21.6211 17.9961L14.1211 25.4961C13.5703 26.0469 12.6797 26.0469 12.1348 25.4961L8.38477 21.7461C7.83398 21.1953 7.83398 20.3047 8.38477 19.7598C8.93555 19.2148 9.82617 19.209 10.3711 19.7598L13.125 22.5137L19.6289 16.0039C20.1797 15.4531 21.0703 15.4531 21.6152 16.0039C22.1602 16.5547 22.166 17.4453 21.6152 17.9902L21.6211 17.9961Z" fill="#16A34A"/>
</g>
<defs>
<clipPath id="clip0_1_1029">
<path d="M0 5.75H30V35.75H0V5.75Z" fill="white"/>
</clipPath>
</defs>
</svg>
