<svg width="24" height="24" viewBox="0 0 24 24" fill="none" xmlns="http://www.w3.org/2000/svg">
<path d="M12 0C18.6274 0 24 5.37258 24 12C24 18.6274 18.6274 24 12 24C5.37258 24 0 18.6274 0 12C0 5.37258 5.37258 0 12 0Z" fill="#DCFCE7"/>
<path d="M12 0C18.6274 0 24 5.37258 24 12C24 18.6274 18.6274 24 12 24C5.37258 24 0 18.6274 0 12C0 5.37258 5.37258 0 12 0Z" stroke="#E5E7EB"/>
<path d="M19 20H5V4H19V20Z" stroke="#E5E7EB"/>
<g clip-path="url(#clip0_7_381)">
<path d="M15.9186 5.39379C16.103 4.96566 15.9655 4.46566 15.5873 4.19066C15.2092 3.91566 14.6936 3.94066 14.3405 4.24691L6.34046 11.2469C6.02796 11.5219 5.91546 11.9625 6.06233 12.35C6.20921 12.7375 6.58421 13 6.99983 13H10.4842L8.08108 18.6063C7.89671 19.0344 8.03421 19.5344 8.41233 19.8094C8.79046 20.0844 9.30608 20.0594 9.65921 19.7532L17.6592 12.7532C17.9717 12.4782 18.0842 12.0375 17.9373 11.65C17.7905 11.2625 17.4186 11.0032 16.9998 11.0032H13.5155L15.9186 5.39379Z" fill="#15803D"/>
</g>
<defs>
<clipPath id="clip0_7_381">
<path d="M5 4H19V20H5V4Z" fill="white"/>
</clipPath>
</defs>
</svg>
